<mxfile host="app.diagrams.net" modified="2020-08-28T05:30:04.907Z" agent="5.0 (Windows NT 10.0; Win64; x64) AppleWebKit/537.36 (KHTML, like Gecko) Chrome/84.0.4147.135 Safari/537.36 Edg/84.0.522.63" etag="3TMO4rDxfacBTsLTBWdX" version="13.6.5" type="github">
  <diagram name="Page-1" id="2c4490ee-f0b8-94ab-5012-d5dc3445f7a3">
    <mxGraphModel dx="671" dy="413" grid="1" gridSize="10" guides="1" tooltips="1" connect="0" arrows="1" fold="1" page="1" pageScale="1.5" pageWidth="1169" pageHeight="826" background="#ffffff" math="0" shadow="0">
      <root>
        <mxCell id="0" style=";html=1;" />
        <mxCell id="1" style=";html=1;" parent="0" />
        <mxCell id="7a8b956e7d50b54d-150" value="" style="align=left;strokeColor=#CCCCCC;html=1;" parent="1" vertex="1">
          <mxGeometry x="160" y="479" width="120" height="20" as="geometry" />
        </mxCell>
        <mxCell id="7a8b956e7d50b54d-162" value="" style="align=left;strokeColor=#CCCCCC;html=1;" parent="1" vertex="1">
          <mxGeometry x="160" y="499" width="120" height="20" as="geometry" />
        </mxCell>
        <mxCell id="7a8b956e7d50b54d-163" value="" style="align=left;strokeColor=#CCCCCC;html=1;" parent="1" vertex="1">
          <mxGeometry x="160" y="519" width="120" height="20" as="geometry" />
        </mxCell>
        <mxCell id="7a8b956e7d50b54d-164" value="" style="align=left;strokeColor=#CCCCCC;html=1;" parent="1" vertex="1">
          <mxGeometry x="160" y="539" width="120" height="20" as="geometry" />
        </mxCell>
        <mxCell id="7a8b956e7d50b54d-165" value="" style="align=left;strokeColor=#CCCCCC;html=1;" parent="1" vertex="1">
          <mxGeometry x="160" y="559" width="120" height="20" as="geometry" />
        </mxCell>
        <mxCell id="7a8b956e7d50b54d-166" value="" style="align=left;strokeColor=#CCCCCC;html=1;" parent="1" vertex="1">
          <mxGeometry x="160" y="579" width="120" height="20" as="geometry" />
        </mxCell>
        <mxCell id="7a8b956e7d50b54d-167" value="" style="align=left;strokeColor=#CCCCCC;html=1;" parent="1" vertex="1">
          <mxGeometry x="160" y="599" width="120" height="20" as="geometry" />
        </mxCell>
        <mxCell id="7a8b956e7d50b54d-168" value="" style="align=left;strokeColor=#CCCCCC;html=1;" parent="1" vertex="1">
          <mxGeometry x="160" y="619" width="120" height="20" as="geometry" />
        </mxCell>
        <mxCell id="7a8b956e7d50b54d-169" value="" style="align=left;strokeColor=#CCCCCC;html=1;" parent="1" vertex="1">
          <mxGeometry x="160" y="639" width="120" height="20" as="geometry" />
        </mxCell>
        <mxCell id="7a8b956e7d50b54d-170" value="" style="align=left;strokeColor=#CCCCCC;html=1;" parent="1" vertex="1">
          <mxGeometry x="160" y="659" width="120" height="20" as="geometry" />
        </mxCell>
        <mxCell id="7a8b956e7d50b54d-171" value="" style="align=left;strokeColor=#CCCCCC;html=1;" parent="1" vertex="1">
          <mxGeometry x="160" y="679" width="120" height="20" as="geometry" />
        </mxCell>
        <mxCell id="7a8b956e7d50b54d-172" value="" style="align=left;strokeColor=#CCCCCC;html=1;" parent="1" vertex="1">
          <mxGeometry x="160" y="699" width="120" height="20" as="geometry" />
        </mxCell>
        <mxCell id="7a8b956e7d50b54d-173" value="" style="align=left;strokeColor=#CCCCCC;html=1;" parent="1" vertex="1">
          <mxGeometry x="160" y="719" width="120" height="20" as="geometry" />
        </mxCell>
        <mxCell id="7a8b956e7d50b54d-174" value="" style="align=left;strokeColor=#CCCCCC;html=1;" parent="1" vertex="1">
          <mxGeometry x="160" y="739" width="120" height="20" as="geometry" />
        </mxCell>
        <mxCell id="7a8b956e7d50b54d-175" value="" style="align=left;strokeColor=#CCCCCC;html=1;" parent="1" vertex="1">
          <mxGeometry x="160" y="759" width="120" height="20" as="geometry" />
        </mxCell>
        <mxCell id="7a8b956e7d50b54d-176" value="" style="align=left;strokeColor=#CCCCCC;html=1;" parent="1" vertex="1">
          <mxGeometry x="160" y="779" width="120" height="20" as="geometry" />
        </mxCell>
        <mxCell id="7a8b956e7d50b54d-177" value="" style="align=left;strokeColor=#CCCCCC;html=1;" parent="1" vertex="1">
          <mxGeometry x="280" y="479" width="120" height="20" as="geometry" />
        </mxCell>
        <mxCell id="7a8b956e7d50b54d-178" value="" style="align=left;strokeColor=#CCCCCC;html=1;" parent="1" vertex="1">
          <mxGeometry x="280" y="499" width="120" height="20" as="geometry" />
        </mxCell>
        <mxCell id="7a8b956e7d50b54d-179" value="" style="align=left;strokeColor=#CCCCCC;html=1;" parent="1" vertex="1">
          <mxGeometry x="280" y="519" width="120" height="20" as="geometry" />
        </mxCell>
        <mxCell id="7a8b956e7d50b54d-180" value="" style="align=left;strokeColor=#CCCCCC;html=1;" parent="1" vertex="1">
          <mxGeometry x="280" y="539" width="120" height="20" as="geometry" />
        </mxCell>
        <mxCell id="7a8b956e7d50b54d-181" value="" style="align=left;strokeColor=#CCCCCC;html=1;" parent="1" vertex="1">
          <mxGeometry x="280" y="559" width="120" height="20" as="geometry" />
        </mxCell>
        <mxCell id="7a8b956e7d50b54d-182" value="" style="align=left;strokeColor=#CCCCCC;html=1;" parent="1" vertex="1">
          <mxGeometry x="280" y="579" width="120" height="20" as="geometry" />
        </mxCell>
        <mxCell id="7a8b956e7d50b54d-183" value="" style="align=left;strokeColor=#CCCCCC;html=1;" parent="1" vertex="1">
          <mxGeometry x="280" y="599" width="120" height="20" as="geometry" />
        </mxCell>
        <mxCell id="7a8b956e7d50b54d-184" value="" style="align=left;strokeColor=#CCCCCC;html=1;" parent="1" vertex="1">
          <mxGeometry x="280" y="619" width="120" height="20" as="geometry" />
        </mxCell>
        <mxCell id="7a8b956e7d50b54d-185" value="" style="align=left;strokeColor=#CCCCCC;html=1;" parent="1" vertex="1">
          <mxGeometry x="280" y="639" width="120" height="20" as="geometry" />
        </mxCell>
        <mxCell id="7a8b956e7d50b54d-186" value="" style="align=left;strokeColor=#CCCCCC;html=1;" parent="1" vertex="1">
          <mxGeometry x="280" y="659" width="120" height="20" as="geometry" />
        </mxCell>
        <mxCell id="7a8b956e7d50b54d-187" value="" style="align=left;strokeColor=#CCCCCC;html=1;" parent="1" vertex="1">
          <mxGeometry x="280" y="679" width="120" height="20" as="geometry" />
        </mxCell>
        <mxCell id="7a8b956e7d50b54d-188" value="" style="align=left;strokeColor=#CCCCCC;html=1;" parent="1" vertex="1">
          <mxGeometry x="280" y="699" width="120" height="20" as="geometry" />
        </mxCell>
        <mxCell id="7a8b956e7d50b54d-189" value="" style="align=left;strokeColor=#CCCCCC;html=1;" parent="1" vertex="1">
          <mxGeometry x="280" y="719" width="120" height="20" as="geometry" />
        </mxCell>
        <mxCell id="7a8b956e7d50b54d-190" value="" style="align=left;strokeColor=#CCCCCC;html=1;" parent="1" vertex="1">
          <mxGeometry x="280" y="739" width="120" height="20" as="geometry" />
        </mxCell>
        <mxCell id="7a8b956e7d50b54d-191" value="" style="align=left;strokeColor=#CCCCCC;html=1;" parent="1" vertex="1">
          <mxGeometry x="280" y="759" width="120" height="20" as="geometry" />
        </mxCell>
        <mxCell id="7a8b956e7d50b54d-192" value="" style="align=left;strokeColor=#CCCCCC;html=1;" parent="1" vertex="1">
          <mxGeometry x="280" y="779" width="120" height="20" as="geometry" />
        </mxCell>
        <mxCell id="7a8b956e7d50b54d-193" value="" style="align=left;strokeColor=#CCCCCC;html=1;" parent="1" vertex="1">
          <mxGeometry x="400" y="479" width="120" height="20" as="geometry" />
        </mxCell>
        <mxCell id="7a8b956e7d50b54d-194" value="" style="align=left;strokeColor=#CCCCCC;html=1;" parent="1" vertex="1">
          <mxGeometry x="400" y="499" width="120" height="20" as="geometry" />
        </mxCell>
        <mxCell id="7a8b956e7d50b54d-195" value="" style="align=left;strokeColor=#CCCCCC;html=1;" parent="1" vertex="1">
          <mxGeometry x="400" y="519" width="120" height="20" as="geometry" />
        </mxCell>
        <mxCell id="7a8b956e7d50b54d-196" value="" style="align=left;strokeColor=#CCCCCC;html=1;" parent="1" vertex="1">
          <mxGeometry x="400" y="539" width="120" height="20" as="geometry" />
        </mxCell>
        <mxCell id="7a8b956e7d50b54d-197" value="" style="align=left;strokeColor=#CCCCCC;html=1;" parent="1" vertex="1">
          <mxGeometry x="400" y="559" width="120" height="20" as="geometry" />
        </mxCell>
        <mxCell id="7a8b956e7d50b54d-198" value="" style="align=left;strokeColor=#CCCCCC;html=1;" parent="1" vertex="1">
          <mxGeometry x="400" y="579" width="120" height="20" as="geometry" />
        </mxCell>
        <mxCell id="7a8b956e7d50b54d-199" value="" style="align=left;strokeColor=#CCCCCC;html=1;" parent="1" vertex="1">
          <mxGeometry x="400" y="599" width="120" height="20" as="geometry" />
        </mxCell>
        <mxCell id="7a8b956e7d50b54d-200" value="" style="align=left;strokeColor=#CCCCCC;html=1;" parent="1" vertex="1">
          <mxGeometry x="400" y="619" width="120" height="20" as="geometry" />
        </mxCell>
        <mxCell id="7a8b956e7d50b54d-201" value="" style="align=left;strokeColor=#CCCCCC;html=1;" parent="1" vertex="1">
          <mxGeometry x="400" y="639" width="120" height="20" as="geometry" />
        </mxCell>
        <mxCell id="7a8b956e7d50b54d-202" value="" style="align=left;strokeColor=#CCCCCC;html=1;" parent="1" vertex="1">
          <mxGeometry x="400" y="659" width="120" height="20" as="geometry" />
        </mxCell>
        <mxCell id="7a8b956e7d50b54d-203" value="" style="align=left;strokeColor=#CCCCCC;html=1;" parent="1" vertex="1">
          <mxGeometry x="400" y="679" width="120" height="20" as="geometry" />
        </mxCell>
        <mxCell id="7a8b956e7d50b54d-204" value="" style="align=left;strokeColor=#CCCCCC;html=1;" parent="1" vertex="1">
          <mxGeometry x="400" y="699" width="120" height="20" as="geometry" />
        </mxCell>
        <mxCell id="7a8b956e7d50b54d-205" value="" style="align=left;strokeColor=#CCCCCC;html=1;" parent="1" vertex="1">
          <mxGeometry x="400" y="719" width="120" height="20" as="geometry" />
        </mxCell>
        <mxCell id="7a8b956e7d50b54d-206" value="" style="align=left;strokeColor=#CCCCCC;html=1;" parent="1" vertex="1">
          <mxGeometry x="400" y="739" width="120" height="20" as="geometry" />
        </mxCell>
        <mxCell id="7a8b956e7d50b54d-207" value="" style="align=left;strokeColor=#CCCCCC;html=1;" parent="1" vertex="1">
          <mxGeometry x="400" y="759" width="120" height="20" as="geometry" />
        </mxCell>
        <mxCell id="7a8b956e7d50b54d-208" value="" style="align=left;strokeColor=#CCCCCC;html=1;" parent="1" vertex="1">
          <mxGeometry x="400" y="779" width="120" height="20" as="geometry" />
        </mxCell>
        <mxCell id="7a8b956e7d50b54d-209" value="" style="align=left;strokeColor=#CCCCCC;html=1;" parent="1" vertex="1">
          <mxGeometry x="520" y="479" width="120" height="20" as="geometry" />
        </mxCell>
        <mxCell id="7a8b956e7d50b54d-210" value="" style="align=left;strokeColor=#CCCCCC;html=1;" parent="1" vertex="1">
          <mxGeometry x="520" y="499" width="120" height="20" as="geometry" />
        </mxCell>
        <mxCell id="7a8b956e7d50b54d-211" value="" style="align=left;strokeColor=#CCCCCC;html=1;" parent="1" vertex="1">
          <mxGeometry x="520" y="519" width="120" height="20" as="geometry" />
        </mxCell>
        <mxCell id="7a8b956e7d50b54d-212" value="" style="align=left;strokeColor=#CCCCCC;html=1;" parent="1" vertex="1">
          <mxGeometry x="520" y="539" width="120" height="20" as="geometry" />
        </mxCell>
        <mxCell id="7a8b956e7d50b54d-213" value="" style="align=left;strokeColor=#CCCCCC;html=1;" parent="1" vertex="1">
          <mxGeometry x="520" y="559" width="120" height="20" as="geometry" />
        </mxCell>
        <mxCell id="7a8b956e7d50b54d-214" value="" style="align=left;strokeColor=#CCCCCC;html=1;" parent="1" vertex="1">
          <mxGeometry x="520" y="579" width="120" height="20" as="geometry" />
        </mxCell>
        <mxCell id="7a8b956e7d50b54d-215" value="" style="align=left;strokeColor=#CCCCCC;html=1;" parent="1" vertex="1">
          <mxGeometry x="520" y="599" width="120" height="20" as="geometry" />
        </mxCell>
        <mxCell id="7a8b956e7d50b54d-216" value="" style="align=left;strokeColor=#CCCCCC;html=1;" parent="1" vertex="1">
          <mxGeometry x="520" y="619" width="120" height="20" as="geometry" />
        </mxCell>
        <mxCell id="7a8b956e7d50b54d-217" value="" style="align=left;strokeColor=#CCCCCC;html=1;" parent="1" vertex="1">
          <mxGeometry x="520" y="639" width="120" height="20" as="geometry" />
        </mxCell>
        <mxCell id="7a8b956e7d50b54d-218" value="" style="align=left;strokeColor=#CCCCCC;html=1;" parent="1" vertex="1">
          <mxGeometry x="520" y="659" width="120" height="20" as="geometry" />
        </mxCell>
        <mxCell id="7a8b956e7d50b54d-219" value="" style="align=left;strokeColor=#CCCCCC;html=1;" parent="1" vertex="1">
          <mxGeometry x="520" y="679" width="120" height="20" as="geometry" />
        </mxCell>
        <mxCell id="7a8b956e7d50b54d-220" value="" style="align=left;strokeColor=#CCCCCC;html=1;" parent="1" vertex="1">
          <mxGeometry x="520" y="699" width="120" height="20" as="geometry" />
        </mxCell>
        <mxCell id="7a8b956e7d50b54d-221" value="" style="align=left;strokeColor=#CCCCCC;html=1;" parent="1" vertex="1">
          <mxGeometry x="520" y="719" width="120" height="20" as="geometry" />
        </mxCell>
        <mxCell id="7a8b956e7d50b54d-222" value="" style="align=left;strokeColor=#CCCCCC;html=1;" parent="1" vertex="1">
          <mxGeometry x="520" y="739" width="120" height="20" as="geometry" />
        </mxCell>
        <mxCell id="7a8b956e7d50b54d-223" value="" style="align=left;strokeColor=#CCCCCC;html=1;" parent="1" vertex="1">
          <mxGeometry x="520" y="759" width="120" height="20" as="geometry" />
        </mxCell>
        <mxCell id="7a8b956e7d50b54d-224" value="" style="align=left;strokeColor=#CCCCCC;html=1;" parent="1" vertex="1">
          <mxGeometry x="520" y="779" width="120" height="20" as="geometry" />
        </mxCell>
        <mxCell id="7a8b956e7d50b54d-225" value="" style="align=left;strokeColor=#CCCCCC;html=1;" parent="1" vertex="1">
          <mxGeometry x="640" y="479" width="120" height="20" as="geometry" />
        </mxCell>
        <mxCell id="7a8b956e7d50b54d-226" value="" style="align=left;strokeColor=#CCCCCC;html=1;" parent="1" vertex="1">
          <mxGeometry x="640" y="499" width="120" height="20" as="geometry" />
        </mxCell>
        <mxCell id="7a8b956e7d50b54d-227" value="" style="align=left;strokeColor=#CCCCCC;html=1;" parent="1" vertex="1">
          <mxGeometry x="640" y="519" width="120" height="20" as="geometry" />
        </mxCell>
        <mxCell id="7a8b956e7d50b54d-228" value="" style="align=left;strokeColor=#CCCCCC;html=1;" parent="1" vertex="1">
          <mxGeometry x="640" y="539" width="120" height="20" as="geometry" />
        </mxCell>
        <mxCell id="7a8b956e7d50b54d-229" value="" style="align=left;strokeColor=#CCCCCC;html=1;" parent="1" vertex="1">
          <mxGeometry x="640" y="559" width="120" height="20" as="geometry" />
        </mxCell>
        <mxCell id="7a8b956e7d50b54d-230" value="" style="align=left;strokeColor=#CCCCCC;html=1;" parent="1" vertex="1">
          <mxGeometry x="640" y="579" width="120" height="20" as="geometry" />
        </mxCell>
        <mxCell id="7a8b956e7d50b54d-231" value="" style="align=left;strokeColor=#CCCCCC;html=1;" parent="1" vertex="1">
          <mxGeometry x="640" y="599" width="120" height="20" as="geometry" />
        </mxCell>
        <mxCell id="7a8b956e7d50b54d-232" value="" style="align=left;strokeColor=#CCCCCC;html=1;" parent="1" vertex="1">
          <mxGeometry x="640" y="619" width="120" height="20" as="geometry" />
        </mxCell>
        <mxCell id="7a8b956e7d50b54d-233" value="" style="align=left;strokeColor=#CCCCCC;html=1;" parent="1" vertex="1">
          <mxGeometry x="640" y="639" width="120" height="20" as="geometry" />
        </mxCell>
        <mxCell id="7a8b956e7d50b54d-234" value="" style="align=left;strokeColor=#CCCCCC;html=1;" parent="1" vertex="1">
          <mxGeometry x="640" y="659" width="120" height="20" as="geometry" />
        </mxCell>
        <mxCell id="7a8b956e7d50b54d-235" value="" style="align=left;strokeColor=#CCCCCC;html=1;" parent="1" vertex="1">
          <mxGeometry x="640" y="679" width="120" height="20" as="geometry" />
        </mxCell>
        <mxCell id="7a8b956e7d50b54d-236" value="" style="align=left;strokeColor=#CCCCCC;html=1;" parent="1" vertex="1">
          <mxGeometry x="640" y="699" width="120" height="20" as="geometry" />
        </mxCell>
        <mxCell id="7a8b956e7d50b54d-237" value="" style="align=left;strokeColor=#CCCCCC;html=1;" parent="1" vertex="1">
          <mxGeometry x="640" y="719" width="120" height="20" as="geometry" />
        </mxCell>
        <mxCell id="7a8b956e7d50b54d-238" value="" style="align=left;strokeColor=#CCCCCC;html=1;" parent="1" vertex="1">
          <mxGeometry x="640" y="739" width="120" height="20" as="geometry" />
        </mxCell>
        <mxCell id="7a8b956e7d50b54d-239" value="" style="align=left;strokeColor=#CCCCCC;html=1;" parent="1" vertex="1">
          <mxGeometry x="640" y="759" width="120" height="20" as="geometry" />
        </mxCell>
        <mxCell id="7a8b956e7d50b54d-240" value="" style="align=left;strokeColor=#CCCCCC;html=1;" parent="1" vertex="1">
          <mxGeometry x="640" y="779" width="120" height="20" as="geometry" />
        </mxCell>
        <mxCell id="7a8b956e7d50b54d-241" value="" style="align=left;strokeColor=#CCCCCC;html=1;" parent="1" vertex="1">
          <mxGeometry x="760" y="479" width="120" height="20" as="geometry" />
        </mxCell>
        <mxCell id="7a8b956e7d50b54d-242" value="" style="align=left;strokeColor=#CCCCCC;html=1;" parent="1" vertex="1">
          <mxGeometry x="760" y="499" width="120" height="20" as="geometry" />
        </mxCell>
        <mxCell id="7a8b956e7d50b54d-243" value="" style="align=left;strokeColor=#CCCCCC;html=1;" parent="1" vertex="1">
          <mxGeometry x="760" y="519" width="120" height="20" as="geometry" />
        </mxCell>
        <mxCell id="7a8b956e7d50b54d-244" value="" style="align=left;strokeColor=#CCCCCC;html=1;" parent="1" vertex="1">
          <mxGeometry x="760" y="539" width="120" height="20" as="geometry" />
        </mxCell>
        <mxCell id="7a8b956e7d50b54d-245" value="" style="align=left;strokeColor=#CCCCCC;html=1;" parent="1" vertex="1">
          <mxGeometry x="760" y="559" width="120" height="20" as="geometry" />
        </mxCell>
        <mxCell id="7a8b956e7d50b54d-246" value="" style="align=left;strokeColor=#CCCCCC;html=1;" parent="1" vertex="1">
          <mxGeometry x="760" y="579" width="120" height="20" as="geometry" />
        </mxCell>
        <mxCell id="7a8b956e7d50b54d-247" value="" style="align=left;strokeColor=#CCCCCC;html=1;" parent="1" vertex="1">
          <mxGeometry x="760" y="599" width="120" height="20" as="geometry" />
        </mxCell>
        <mxCell id="7a8b956e7d50b54d-248" value="" style="align=left;strokeColor=#CCCCCC;html=1;" parent="1" vertex="1">
          <mxGeometry x="760" y="619" width="120" height="20" as="geometry" />
        </mxCell>
        <mxCell id="7a8b956e7d50b54d-249" value="" style="align=left;strokeColor=#CCCCCC;html=1;" parent="1" vertex="1">
          <mxGeometry x="760" y="639" width="120" height="20" as="geometry" />
        </mxCell>
        <mxCell id="7a8b956e7d50b54d-250" value="" style="align=left;strokeColor=#CCCCCC;html=1;" parent="1" vertex="1">
          <mxGeometry x="760" y="659" width="120" height="20" as="geometry" />
        </mxCell>
        <mxCell id="7a8b956e7d50b54d-251" value="" style="align=left;strokeColor=#CCCCCC;html=1;" parent="1" vertex="1">
          <mxGeometry x="760" y="679" width="120" height="20" as="geometry" />
        </mxCell>
        <mxCell id="7a8b956e7d50b54d-252" value="" style="align=left;strokeColor=#CCCCCC;html=1;" parent="1" vertex="1">
          <mxGeometry x="760" y="699" width="120" height="20" as="geometry" />
        </mxCell>
        <mxCell id="7a8b956e7d50b54d-253" value="" style="align=left;strokeColor=#CCCCCC;html=1;" parent="1" vertex="1">
          <mxGeometry x="760" y="719" width="120" height="20" as="geometry" />
        </mxCell>
        <mxCell id="7a8b956e7d50b54d-254" value="" style="align=left;strokeColor=#CCCCCC;html=1;" parent="1" vertex="1">
          <mxGeometry x="760" y="739" width="120" height="20" as="geometry" />
        </mxCell>
        <mxCell id="7a8b956e7d50b54d-255" value="" style="align=left;strokeColor=#CCCCCC;html=1;" parent="1" vertex="1">
          <mxGeometry x="760" y="759" width="120" height="20" as="geometry" />
        </mxCell>
        <mxCell id="7a8b956e7d50b54d-256" value="" style="align=left;strokeColor=#CCCCCC;html=1;" parent="1" vertex="1">
          <mxGeometry x="760" y="779" width="120" height="20" as="geometry" />
        </mxCell>
        <mxCell id="7a8b956e7d50b54d-257" value="" style="align=left;strokeColor=#CCCCCC;html=1;" parent="1" vertex="1">
          <mxGeometry x="880" y="479" width="120" height="20" as="geometry" />
        </mxCell>
        <mxCell id="7a8b956e7d50b54d-258" value="" style="align=left;strokeColor=#CCCCCC;html=1;" parent="1" vertex="1">
          <mxGeometry x="880" y="499" width="120" height="20" as="geometry" />
        </mxCell>
        <mxCell id="7a8b956e7d50b54d-259" value="" style="align=left;strokeColor=#CCCCCC;html=1;" parent="1" vertex="1">
          <mxGeometry x="880" y="519" width="120" height="20" as="geometry" />
        </mxCell>
        <mxCell id="7a8b956e7d50b54d-260" value="" style="align=left;strokeColor=#CCCCCC;html=1;" parent="1" vertex="1">
          <mxGeometry x="880" y="539" width="120" height="20" as="geometry" />
        </mxCell>
        <mxCell id="7a8b956e7d50b54d-261" value="" style="align=left;strokeColor=#CCCCCC;html=1;" parent="1" vertex="1">
          <mxGeometry x="880" y="559" width="120" height="20" as="geometry" />
        </mxCell>
        <mxCell id="7a8b956e7d50b54d-262" value="" style="align=left;strokeColor=#CCCCCC;html=1;" parent="1" vertex="1">
          <mxGeometry x="880" y="579" width="120" height="20" as="geometry" />
        </mxCell>
        <mxCell id="7a8b956e7d50b54d-263" value="" style="align=left;strokeColor=#CCCCCC;html=1;" parent="1" vertex="1">
          <mxGeometry x="880" y="599" width="120" height="20" as="geometry" />
        </mxCell>
        <mxCell id="7a8b956e7d50b54d-264" value="" style="align=left;strokeColor=#CCCCCC;html=1;" parent="1" vertex="1">
          <mxGeometry x="880" y="619" width="120" height="20" as="geometry" />
        </mxCell>
        <mxCell id="7a8b956e7d50b54d-265" value="" style="align=left;strokeColor=#CCCCCC;html=1;" parent="1" vertex="1">
          <mxGeometry x="880" y="639" width="120" height="20" as="geometry" />
        </mxCell>
        <mxCell id="7a8b956e7d50b54d-266" value="" style="align=left;strokeColor=#CCCCCC;html=1;" parent="1" vertex="1">
          <mxGeometry x="880" y="659" width="120" height="20" as="geometry" />
        </mxCell>
        <mxCell id="7a8b956e7d50b54d-267" value="" style="align=left;strokeColor=#CCCCCC;html=1;" parent="1" vertex="1">
          <mxGeometry x="880" y="679" width="120" height="20" as="geometry" />
        </mxCell>
        <mxCell id="7a8b956e7d50b54d-268" value="" style="align=left;strokeColor=#CCCCCC;html=1;" parent="1" vertex="1">
          <mxGeometry x="880" y="699" width="120" height="20" as="geometry" />
        </mxCell>
        <mxCell id="7a8b956e7d50b54d-269" value="" style="align=left;strokeColor=#CCCCCC;html=1;" parent="1" vertex="1">
          <mxGeometry x="880" y="719" width="120" height="20" as="geometry" />
        </mxCell>
        <mxCell id="7a8b956e7d50b54d-270" value="" style="align=left;strokeColor=#CCCCCC;html=1;" parent="1" vertex="1">
          <mxGeometry x="880" y="739" width="120" height="20" as="geometry" />
        </mxCell>
        <mxCell id="7a8b956e7d50b54d-271" value="" style="align=left;strokeColor=#CCCCCC;html=1;" parent="1" vertex="1">
          <mxGeometry x="880" y="759" width="120" height="20" as="geometry" />
        </mxCell>
        <mxCell id="7a8b956e7d50b54d-272" value="" style="align=left;strokeColor=#CCCCCC;html=1;" parent="1" vertex="1">
          <mxGeometry x="880" y="779" width="120" height="20" as="geometry" />
        </mxCell>
        <mxCell id="7a8b956e7d50b54d-273" value="" style="align=left;strokeColor=#CCCCCC;html=1;" parent="1" vertex="1">
          <mxGeometry x="1000" y="479" width="120" height="20" as="geometry" />
        </mxCell>
        <mxCell id="7a8b956e7d50b54d-274" value="" style="align=left;strokeColor=#CCCCCC;html=1;" parent="1" vertex="1">
          <mxGeometry x="1000" y="499" width="120" height="20" as="geometry" />
        </mxCell>
        <mxCell id="7a8b956e7d50b54d-275" value="" style="align=left;strokeColor=#CCCCCC;html=1;" parent="1" vertex="1">
          <mxGeometry x="1000" y="519" width="120" height="20" as="geometry" />
        </mxCell>
        <mxCell id="7a8b956e7d50b54d-276" value="" style="align=left;strokeColor=#CCCCCC;html=1;" parent="1" vertex="1">
          <mxGeometry x="1000" y="539" width="120" height="20" as="geometry" />
        </mxCell>
        <mxCell id="7a8b956e7d50b54d-277" value="" style="align=left;strokeColor=#CCCCCC;html=1;" parent="1" vertex="1">
          <mxGeometry x="1000" y="559" width="120" height="20" as="geometry" />
        </mxCell>
        <mxCell id="7a8b956e7d50b54d-278" value="" style="align=left;strokeColor=#CCCCCC;html=1;" parent="1" vertex="1">
          <mxGeometry x="1000" y="579" width="120" height="20" as="geometry" />
        </mxCell>
        <mxCell id="7a8b956e7d50b54d-279" value="" style="align=left;strokeColor=#CCCCCC;html=1;" parent="1" vertex="1">
          <mxGeometry x="1000" y="599" width="120" height="20" as="geometry" />
        </mxCell>
        <mxCell id="7a8b956e7d50b54d-280" value="" style="align=left;strokeColor=#CCCCCC;html=1;" parent="1" vertex="1">
          <mxGeometry x="1000" y="619" width="120" height="20" as="geometry" />
        </mxCell>
        <mxCell id="7a8b956e7d50b54d-281" value="" style="align=left;strokeColor=#CCCCCC;html=1;" parent="1" vertex="1">
          <mxGeometry x="1000" y="639" width="120" height="20" as="geometry" />
        </mxCell>
        <mxCell id="7a8b956e7d50b54d-282" value="" style="align=left;strokeColor=#CCCCCC;html=1;" parent="1" vertex="1">
          <mxGeometry x="1000" y="659" width="120" height="20" as="geometry" />
        </mxCell>
        <mxCell id="7a8b956e7d50b54d-283" value="" style="align=left;strokeColor=#CCCCCC;html=1;" parent="1" vertex="1">
          <mxGeometry x="1000" y="679" width="120" height="20" as="geometry" />
        </mxCell>
        <mxCell id="7a8b956e7d50b54d-284" value="" style="align=left;strokeColor=#CCCCCC;html=1;" parent="1" vertex="1">
          <mxGeometry x="1000" y="699" width="120" height="20" as="geometry" />
        </mxCell>
        <mxCell id="7a8b956e7d50b54d-285" value="" style="align=left;strokeColor=#CCCCCC;html=1;" parent="1" vertex="1">
          <mxGeometry x="1000" y="719" width="120" height="20" as="geometry" />
        </mxCell>
        <mxCell id="7a8b956e7d50b54d-286" value="" style="align=left;strokeColor=#CCCCCC;html=1;" parent="1" vertex="1">
          <mxGeometry x="1000" y="739" width="120" height="20" as="geometry" />
        </mxCell>
        <mxCell id="7a8b956e7d50b54d-287" value="" style="align=left;strokeColor=#CCCCCC;html=1;" parent="1" vertex="1">
          <mxGeometry x="1000" y="759" width="120" height="20" as="geometry" />
        </mxCell>
        <mxCell id="7a8b956e7d50b54d-288" value="" style="align=left;strokeColor=#CCCCCC;html=1;" parent="1" vertex="1">
          <mxGeometry x="1000" y="779" width="120" height="20" as="geometry" />
        </mxCell>
        <mxCell id="7a8b956e7d50b54d-289" value="" style="align=left;strokeColor=#CCCCCC;html=1;" parent="1" vertex="1">
          <mxGeometry x="1120" y="479" width="120" height="20" as="geometry" />
        </mxCell>
        <mxCell id="7a8b956e7d50b54d-290" value="" style="align=left;strokeColor=#CCCCCC;html=1;" parent="1" vertex="1">
          <mxGeometry x="1120" y="499" width="120" height="20" as="geometry" />
        </mxCell>
        <mxCell id="7a8b956e7d50b54d-291" value="" style="align=left;strokeColor=#CCCCCC;html=1;" parent="1" vertex="1">
          <mxGeometry x="1120" y="519" width="120" height="20" as="geometry" />
        </mxCell>
        <mxCell id="7a8b956e7d50b54d-292" value="" style="align=left;strokeColor=#CCCCCC;html=1;" parent="1" vertex="1">
          <mxGeometry x="1120" y="539" width="120" height="20" as="geometry" />
        </mxCell>
        <mxCell id="7a8b956e7d50b54d-293" value="" style="align=left;strokeColor=#CCCCCC;html=1;" parent="1" vertex="1">
          <mxGeometry x="1120" y="559" width="120" height="20" as="geometry" />
        </mxCell>
        <mxCell id="7a8b956e7d50b54d-294" value="" style="align=left;strokeColor=#CCCCCC;html=1;" parent="1" vertex="1">
          <mxGeometry x="1120" y="579" width="120" height="20" as="geometry" />
        </mxCell>
        <mxCell id="7a8b956e7d50b54d-295" value="" style="align=left;strokeColor=#CCCCCC;html=1;" parent="1" vertex="1">
          <mxGeometry x="1120" y="599" width="120" height="20" as="geometry" />
        </mxCell>
        <mxCell id="7a8b956e7d50b54d-296" value="" style="align=left;strokeColor=#CCCCCC;html=1;" parent="1" vertex="1">
          <mxGeometry x="1120" y="619" width="120" height="20" as="geometry" />
        </mxCell>
        <mxCell id="7a8b956e7d50b54d-297" value="" style="align=left;strokeColor=#CCCCCC;html=1;" parent="1" vertex="1">
          <mxGeometry x="1120" y="639" width="120" height="20" as="geometry" />
        </mxCell>
        <mxCell id="7a8b956e7d50b54d-298" value="" style="align=left;strokeColor=#CCCCCC;html=1;" parent="1" vertex="1">
          <mxGeometry x="1120" y="659" width="120" height="20" as="geometry" />
        </mxCell>
        <mxCell id="7a8b956e7d50b54d-299" value="" style="align=left;strokeColor=#CCCCCC;html=1;" parent="1" vertex="1">
          <mxGeometry x="1120" y="679" width="120" height="20" as="geometry" />
        </mxCell>
        <mxCell id="7a8b956e7d50b54d-300" value="" style="align=left;strokeColor=#CCCCCC;html=1;" parent="1" vertex="1">
          <mxGeometry x="1120" y="699" width="120" height="20" as="geometry" />
        </mxCell>
        <mxCell id="7a8b956e7d50b54d-301" value="" style="align=left;strokeColor=#CCCCCC;html=1;" parent="1" vertex="1">
          <mxGeometry x="1120" y="719" width="120" height="20" as="geometry" />
        </mxCell>
        <mxCell id="7a8b956e7d50b54d-302" value="" style="align=left;strokeColor=#CCCCCC;html=1;" parent="1" vertex="1">
          <mxGeometry x="1120" y="739" width="120" height="20" as="geometry" />
        </mxCell>
        <mxCell id="7a8b956e7d50b54d-303" value="" style="align=left;strokeColor=#CCCCCC;html=1;" parent="1" vertex="1">
          <mxGeometry x="1120" y="759" width="120" height="20" as="geometry" />
        </mxCell>
        <mxCell id="7a8b956e7d50b54d-304" value="" style="align=left;strokeColor=#CCCCCC;html=1;" parent="1" vertex="1">
          <mxGeometry x="1120" y="779" width="120" height="20" as="geometry" />
        </mxCell>
        <mxCell id="7a8b956e7d50b54d-305" value="" style="align=left;strokeColor=#CCCCCC;html=1;" parent="1" vertex="1">
          <mxGeometry x="1240" y="479" width="90" height="20" as="geometry" />
        </mxCell>
        <mxCell id="7a8b956e7d50b54d-306" value="" style="align=left;strokeColor=#CCCCCC;html=1;" parent="1" vertex="1">
          <mxGeometry x="1240" y="499" width="90" height="20" as="geometry" />
        </mxCell>
        <mxCell id="7a8b956e7d50b54d-307" value="" style="align=left;strokeColor=#CCCCCC;html=1;" parent="1" vertex="1">
          <mxGeometry x="1240" y="519" width="90" height="20" as="geometry" />
        </mxCell>
        <mxCell id="7a8b956e7d50b54d-308" value="" style="align=left;strokeColor=#CCCCCC;html=1;" parent="1" vertex="1">
          <mxGeometry x="1240" y="539" width="90" height="20" as="geometry" />
        </mxCell>
        <mxCell id="7a8b956e7d50b54d-309" value="" style="align=left;strokeColor=#CCCCCC;html=1;" parent="1" vertex="1">
          <mxGeometry x="1240" y="559.5" width="90" height="19" as="geometry" />
        </mxCell>
        <mxCell id="7a8b956e7d50b54d-310" value="" style="align=left;strokeColor=#CCCCCC;html=1;" parent="1" vertex="1">
          <mxGeometry x="1240" y="579" width="90" height="20" as="geometry" />
        </mxCell>
        <mxCell id="7a8b956e7d50b54d-311" value="" style="align=left;strokeColor=#CCCCCC;html=1;" parent="1" vertex="1">
          <mxGeometry x="1240" y="599" width="90" height="20" as="geometry" />
        </mxCell>
        <mxCell id="7a8b956e7d50b54d-312" value="" style="align=left;strokeColor=#CCCCCC;html=1;" parent="1" vertex="1">
          <mxGeometry x="1240" y="619" width="90" height="20" as="geometry" />
        </mxCell>
        <mxCell id="7a8b956e7d50b54d-313" value="" style="align=left;strokeColor=#CCCCCC;html=1;" parent="1" vertex="1">
          <mxGeometry x="1240" y="639" width="90" height="20" as="geometry" />
        </mxCell>
        <mxCell id="7a8b956e7d50b54d-314" value="" style="align=left;strokeColor=#CCCCCC;html=1;" parent="1" vertex="1">
          <mxGeometry x="1240" y="659" width="90" height="20" as="geometry" />
        </mxCell>
        <mxCell id="7a8b956e7d50b54d-315" value="" style="align=left;strokeColor=#CCCCCC;html=1;" parent="1" vertex="1">
          <mxGeometry x="1240" y="679" width="90" height="20" as="geometry" />
        </mxCell>
        <mxCell id="7a8b956e7d50b54d-316" value="" style="align=left;strokeColor=#CCCCCC;html=1;" parent="1" vertex="1">
          <mxGeometry x="1240" y="699" width="90" height="20" as="geometry" />
        </mxCell>
        <mxCell id="7a8b956e7d50b54d-317" value="" style="align=left;strokeColor=#CCCCCC;html=1;" parent="1" vertex="1">
          <mxGeometry x="1240" y="719" width="90" height="20" as="geometry" />
        </mxCell>
        <mxCell id="7a8b956e7d50b54d-318" value="" style="align=left;strokeColor=#CCCCCC;html=1;" parent="1" vertex="1">
          <mxGeometry x="1240" y="739" width="90" height="20" as="geometry" />
        </mxCell>
        <mxCell id="7a8b956e7d50b54d-319" value="" style="align=left;strokeColor=#CCCCCC;html=1;" parent="1" vertex="1">
          <mxGeometry x="1240" y="759" width="90" height="20" as="geometry" />
        </mxCell>
        <mxCell id="7a8b956e7d50b54d-320" value="" style="align=left;strokeColor=#CCCCCC;html=1;" parent="1" vertex="1">
          <mxGeometry x="1240" y="779" width="90" height="20" as="geometry" />
        </mxCell>
        <mxCell id="7a8b956e7d50b54d-100" value="1" style="strokeWidth=1;fontStyle=0;html=1;" parent="1" vertex="1">
          <mxGeometry x="400" y="459" width="30" height="20" as="geometry" />
        </mxCell>
        <mxCell id="7a8b956e7d50b54d-101" value="2" style="strokeWidth=1;fontStyle=0;html=1;" parent="1" vertex="1">
          <mxGeometry x="430" y="459" width="30" height="20" as="geometry" />
        </mxCell>
        <mxCell id="7a8b956e7d50b54d-102" value="3" style="strokeWidth=1;fontStyle=0;html=1;" parent="1" vertex="1">
          <mxGeometry x="460" y="459" width="30" height="20" as="geometry" />
        </mxCell>
        <mxCell id="7a8b956e7d50b54d-103" value="4" style="strokeWidth=1;fontStyle=0;html=1;" parent="1" vertex="1">
          <mxGeometry x="490" y="459" width="30" height="20" as="geometry" />
        </mxCell>
        <mxCell id="7a8b956e7d50b54d-105" value="5" style="strokeWidth=1;fontStyle=0;html=1;" parent="1" vertex="1">
          <mxGeometry x="520" y="459" width="30" height="20" as="geometry" />
        </mxCell>
        <mxCell id="7a8b956e7d50b54d-106" value="6" style="strokeWidth=1;fontStyle=0;html=1;" parent="1" vertex="1">
          <mxGeometry x="550" y="459" width="30" height="20" as="geometry" />
        </mxCell>
        <mxCell id="7a8b956e7d50b54d-107" value="7" style="strokeWidth=1;fontStyle=0;html=1;" parent="1" vertex="1">
          <mxGeometry x="580" y="459" width="30" height="20" as="geometry" />
        </mxCell>
        <mxCell id="7a8b956e7d50b54d-108" value="8" style="strokeWidth=1;fontStyle=0;html=1;" parent="1" vertex="1">
          <mxGeometry x="610" y="459" width="30" height="20" as="geometry" />
        </mxCell>
        <mxCell id="7a8b956e7d50b54d-110" value="9" style="strokeWidth=1;fontStyle=0;html=1;" parent="1" vertex="1">
          <mxGeometry x="640" y="459" width="30" height="20" as="geometry" />
        </mxCell>
        <mxCell id="7a8b956e7d50b54d-111" value="10" style="strokeWidth=1;fontStyle=0;html=1;" parent="1" vertex="1">
          <mxGeometry x="670" y="459" width="30" height="20" as="geometry" />
        </mxCell>
        <mxCell id="7a8b956e7d50b54d-112" value="11" style="strokeWidth=1;fontStyle=0;html=1;" parent="1" vertex="1">
          <mxGeometry x="700" y="459" width="30" height="20" as="geometry" />
        </mxCell>
        <mxCell id="7a8b956e7d50b54d-113" value="12" style="strokeWidth=1;fontStyle=0;html=1;" parent="1" vertex="1">
          <mxGeometry x="730" y="459" width="30" height="20" as="geometry" />
        </mxCell>
        <mxCell id="7a8b956e7d50b54d-115" value="13" style="strokeWidth=1;fontStyle=0;html=1;" parent="1" vertex="1">
          <mxGeometry x="760" y="459" width="30" height="20" as="geometry" />
        </mxCell>
        <mxCell id="7a8b956e7d50b54d-116" value="14" style="strokeWidth=1;fontStyle=0;html=1;" parent="1" vertex="1">
          <mxGeometry x="790" y="459" width="30" height="20" as="geometry" />
        </mxCell>
        <mxCell id="7a8b956e7d50b54d-117" value="15" style="strokeWidth=1;fontStyle=0;html=1;" parent="1" vertex="1">
          <mxGeometry x="820" y="459" width="30" height="20" as="geometry" />
        </mxCell>
        <mxCell id="7a8b956e7d50b54d-118" value="16" style="strokeWidth=1;fontStyle=0;html=1;" parent="1" vertex="1">
          <mxGeometry x="850" y="459" width="30" height="20" as="geometry" />
        </mxCell>
        <mxCell id="7a8b956e7d50b54d-120" value="17" style="strokeWidth=1;fontStyle=0;html=1;" parent="1" vertex="1">
          <mxGeometry x="880" y="459" width="30" height="20" as="geometry" />
        </mxCell>
        <mxCell id="7a8b956e7d50b54d-121" value="18" style="strokeWidth=1;fontStyle=0;html=1;" parent="1" vertex="1">
          <mxGeometry x="910" y="459" width="30" height="20" as="geometry" />
        </mxCell>
        <mxCell id="7a8b956e7d50b54d-122" value="19" style="strokeWidth=1;fontStyle=0;html=1;" parent="1" vertex="1">
          <mxGeometry x="940" y="459" width="30" height="20" as="geometry" />
        </mxCell>
        <mxCell id="7a8b956e7d50b54d-123" value="20" style="strokeWidth=1;fontStyle=0;html=1;" parent="1" vertex="1">
          <mxGeometry x="970" y="459" width="30" height="20" as="geometry" />
        </mxCell>
        <mxCell id="7a8b956e7d50b54d-125" value="21" style="strokeWidth=1;fontStyle=0;html=1;" parent="1" vertex="1">
          <mxGeometry x="1000" y="459" width="30" height="20" as="geometry" />
        </mxCell>
        <mxCell id="7a8b956e7d50b54d-126" value="22" style="strokeWidth=1;fontStyle=0;html=1;" parent="1" vertex="1">
          <mxGeometry x="1030" y="459" width="30" height="20" as="geometry" />
        </mxCell>
        <mxCell id="7a8b956e7d50b54d-127" value="23" style="strokeWidth=1;fontStyle=0;html=1;" parent="1" vertex="1">
          <mxGeometry x="1060" y="459" width="30" height="20" as="geometry" />
        </mxCell>
        <mxCell id="7a8b956e7d50b54d-128" value="24" style="strokeWidth=1;fontStyle=0;html=1;" parent="1" vertex="1">
          <mxGeometry x="1090" y="459" width="30" height="20" as="geometry" />
        </mxCell>
        <mxCell id="7a8b956e7d50b54d-130" value="25" style="strokeWidth=1;fontStyle=0;html=1;" parent="1" vertex="1">
          <mxGeometry x="1120" y="459" width="30" height="20" as="geometry" />
        </mxCell>
        <mxCell id="7a8b956e7d50b54d-131" value="26" style="strokeWidth=1;fontStyle=0;html=1;" parent="1" vertex="1">
          <mxGeometry x="1150" y="459" width="30" height="20" as="geometry" />
        </mxCell>
        <mxCell id="7a8b956e7d50b54d-132" value="27" style="strokeWidth=1;fontStyle=0;html=1;" parent="1" vertex="1">
          <mxGeometry x="1180" y="459" width="30" height="20" as="geometry" />
        </mxCell>
        <mxCell id="7a8b956e7d50b54d-133" value="28" style="strokeWidth=1;fontStyle=0;html=1;" parent="1" vertex="1">
          <mxGeometry x="1210" y="459" width="30" height="20" as="geometry" />
        </mxCell>
        <mxCell id="7a8b956e7d50b54d-135" value="29" style="strokeWidth=1;fontStyle=0;html=1;" parent="1" vertex="1">
          <mxGeometry x="1240" y="459" width="30" height="20" as="geometry" />
        </mxCell>
        <mxCell id="7a8b956e7d50b54d-136" value="30" style="strokeWidth=1;fontStyle=0;html=1;" parent="1" vertex="1">
          <mxGeometry x="1270" y="459" width="30" height="20" as="geometry" />
        </mxCell>
        <mxCell id="7a8b956e7d50b54d-137" value="31" style="strokeWidth=1;fontStyle=0;html=1;" parent="1" vertex="1">
          <mxGeometry x="1300" y="459" width="30" height="20" as="geometry" />
        </mxCell>
        <mxCell id="7a8b956e7d50b54d-146" value="28" style="strokeWidth=1;fontStyle=0;html=1;" parent="1" vertex="1">
          <mxGeometry x="280" y="459" width="30" height="20" as="geometry" />
        </mxCell>
        <mxCell id="7a8b956e7d50b54d-147" value="29" style="strokeWidth=1;fontStyle=0;html=1;" parent="1" vertex="1">
          <mxGeometry x="310" y="459" width="30" height="20" as="geometry" />
        </mxCell>
        <mxCell id="7a8b956e7d50b54d-148" value="30" style="strokeWidth=1;fontStyle=0;html=1;" parent="1" vertex="1">
          <mxGeometry x="340" y="459" width="30" height="20" as="geometry" />
        </mxCell>
        <mxCell id="7a8b956e7d50b54d-149" value="31" style="strokeWidth=1;fontStyle=0;html=1;" parent="1" vertex="1">
          <mxGeometry x="370" y="459" width="30" height="20" as="geometry" />
        </mxCell>
        <mxCell id="7a8b956e7d50b54d-152" value="24" style="strokeWidth=1;fontStyle=0;html=1;" parent="1" vertex="1">
          <mxGeometry x="160" y="459" width="30" height="20" as="geometry" />
        </mxCell>
        <mxCell id="7a8b956e7d50b54d-153" value="25" style="strokeWidth=1;fontStyle=0;html=1;" parent="1" vertex="1">
          <mxGeometry x="190" y="459" width="30" height="20" as="geometry" />
        </mxCell>
        <mxCell id="7a8b956e7d50b54d-154" value="26" style="strokeWidth=1;fontStyle=0;html=1;" parent="1" vertex="1">
          <mxGeometry x="220" y="459" width="30" height="20" as="geometry" />
        </mxCell>
        <mxCell id="7a8b956e7d50b54d-155" value="27" style="strokeWidth=1;fontStyle=0;html=1;" parent="1" vertex="1">
          <mxGeometry x="250" y="459" width="30" height="20" as="geometry" />
        </mxCell>
        <mxCell id="7a8b956e7d50b54d-353" value="Task 1" style="align=left;strokeColor=#6c8ebf;html=1;fillColor=#dae8fc;" parent="1" vertex="1">
          <mxGeometry x="160" y="479" width="90" height="20" as="geometry" />
        </mxCell>
        <mxCell id="7a8b956e7d50b54d-354" value="Task 2" style="align=left;strokeColor=#6c8ebf;html=1;fillColor=#dae8fc;" parent="1" vertex="1">
          <mxGeometry x="160" y="499" width="60" height="20" as="geometry" />
        </mxCell>
        <mxCell id="7a8b956e7d50b54d-355" value="Task 3" style="align=left;strokeColor=#6c8ebf;html=1;fillColor=#dae8fc;" parent="1" vertex="1">
          <mxGeometry x="175" y="519" width="120" height="20" as="geometry" />
        </mxCell>
        <mxCell id="7a8b956e7d50b54d-356" value="Task 4" style="align=left;strokeColor=#6c8ebf;html=1;fillColor=#dae8fc;" parent="1" vertex="1">
          <mxGeometry x="160" y="539" width="60" height="20" as="geometry" />
        </mxCell>
        <mxCell id="7a8b956e7d50b54d-357" value="Task 5" style="align=left;strokeColor=#6c8ebf;html=1;fillColor=#dae8fc;" parent="1" vertex="1">
          <mxGeometry x="370" y="559" width="60" height="20" as="geometry" />
        </mxCell>
        <mxCell id="7a8b956e7d50b54d-358" value="Task 6" style="align=left;strokeColor=#6c8ebf;html=1;fillColor=#dae8fc;" parent="1" vertex="1">
          <mxGeometry x="430" y="579" width="180" height="20" as="geometry" />
        </mxCell>
        <mxCell id="7a8b956e7d50b54d-359" value="Task 7" style="align=left;strokeColor=#6c8ebf;html=1;fillColor=#dae8fc;" parent="1" vertex="1">
          <mxGeometry x="610" y="599" width="150" height="20" as="geometry" />
        </mxCell>
        <mxCell id="7a8b956e7d50b54d-360" value="Task 8" style="align=left;strokeColor=#6c8ebf;html=1;fillColor=#dae8fc;" parent="1" vertex="1">
          <mxGeometry x="760" y="619" width="60" height="20" as="geometry" />
        </mxCell>
        <mxCell id="7a8b956e7d50b54d-361" value="Task 9" style="align=left;strokeColor=#6c8ebf;html=1;fillColor=#dae8fc;" parent="1" vertex="1">
          <mxGeometry x="760" y="639" width="60" height="20" as="geometry" />
        </mxCell>
        <mxCell id="7a8b956e7d50b54d-362" value="Task 10" style="align=left;strokeColor=#6c8ebf;html=1;fillColor=#dae8fc;" parent="1" vertex="1">
          <mxGeometry x="760" y="659" width="60" height="20" as="geometry" />
        </mxCell>
        <mxCell id="7a8b956e7d50b54d-363" value="Task 11" style="align=left;strokeColor=#6c8ebf;html=1;fillColor=#dae8fc;" parent="1" vertex="1">
          <mxGeometry x="820" y="679" width="150" height="20" as="geometry" />
        </mxCell>
        <mxCell id="7a8b956e7d50b54d-364" value="Task 12" style="align=left;strokeColor=#6c8ebf;html=1;fillColor=#dae8fc;" parent="1" vertex="1">
          <mxGeometry x="970" y="699" width="90" height="20" as="geometry" />
        </mxCell>
        <mxCell id="7a8b956e7d50b54d-365" value="Task 13" style="align=left;strokeColor=#6c8ebf;html=1;fillColor=#dae8fc;" parent="1" vertex="1">
          <mxGeometry x="1060" y="719" width="90" height="20" as="geometry" />
        </mxCell>
        <mxCell id="7a8b956e7d50b54d-366" value="Task 14" style="align=left;strokeColor=#6c8ebf;html=1;fillColor=#dae8fc;" parent="1" vertex="1">
          <mxGeometry x="1090" y="739" width="90" height="20" as="geometry" />
        </mxCell>
        <mxCell id="7a8b956e7d50b54d-367" value="Task 15" style="align=left;strokeColor=#6c8ebf;html=1;fillColor=#dae8fc;" parent="1" vertex="1">
          <mxGeometry x="1090" y="770" width="210" height="20" as="geometry" />
        </mxCell>
        <mxCell id="Afw0EhBL5VfgrozFLW_b-3" value="八月" style="strokeWidth=1;fontStyle=0;html=1;" vertex="1" parent="1">
          <mxGeometry x="160" y="439" width="240" height="20" as="geometry" />
        </mxCell>
        <mxCell id="Afw0EhBL5VfgrozFLW_b-8" value="九月" style="strokeWidth=1;fontStyle=0;html=1;" vertex="1" parent="1">
          <mxGeometry x="400" y="439" width="930" height="20" as="geometry" />
        </mxCell>
      </root>
    </mxGraphModel>
  </diagram>
</mxfile>
